<svg width="136" height="208" viewBox="0 0 136 208" fill="none" xmlns="http://www.w3.org/2000/svg">
<path d="M117.917 8.93705C117.922 10.0387 117.934 11.1428 117.934 12.2445C117.934 34.7291 117.934 57.2113 117.934 79.6959V80.9762H126.786V107.977H136V144.019H108.715V153.008H99.6085V180.053H90.7715V198.007H81.5401V153.117H72.6507V207.029H63.4192V153.1H54.5298V198.007H45.2984V180.105H36.2217V153.072H27.3623V144.051H0V108.041H9.18899V81.0085H18.0734C18.0734 80.5569 18.0734 80.1723 18.0734 79.7852C18.0734 56.5662 18.0734 33.3471 18.0734 10.128C18.0734 9.73104 18.0834 9.33156 18.0909 8.93457L18.0659 8.95938H27.2999V44.9591H45.241V53.9063H90.7291V44.9914H108.638V8.96186H117.937L117.912 8.93705H117.917ZM54.4799 90.0673H18.1583V116.959H45.2859V107.957H54.4799V90.0673ZM90.7316 116.946H117.882V90.0574H81.575V108.029H90.7316V116.944V116.946ZM90.6791 144.009V126.099H45.3159V143.964H54.5223V135.076H63.4118V143.986H72.6332V135.089H81.5551V144.009H90.6791ZM45.2185 72.0588H27.3722V80.939H45.216V72.0588H45.2185ZM90.794 80.9241H108.605V72.0389H90.794V80.9241Z" fill="#FF0000"/>
<path d="M18.0946 8.93728H9.26758V0H18.0696C18.0696 2.99233 18.0696 5.97721 18.0696 8.96209L18.0946 8.93728Z" fill="#FF0000"/>
<path d="M117.943 8.9625V0.00537109H126.75V8.93769C123.802 8.93769 120.861 8.93769 117.918 8.93769L117.943 8.9625Z" fill="#FF0000"/>
</svg>
